<svg width="70" height="70" viewBox="0 0 70 70" fill="none" xmlns="http://www.w3.org/2000/svg">
<rect width="70" height="70" rx="35" fill="white"/>
<path d="M35.875 30.752C35.4119 29.8939 34.8898 29.069 34.3125 28.2832V22.125C34.3125 21.7106 34.4771 21.3132 34.7702 21.0201C35.0632 20.7271 35.4606 20.5625 35.875 20.5625C36.2894 20.5625 36.6869 20.7271 36.9799 21.0201C37.2729 21.3132 37.4375 21.7106 37.4375 22.125V28.2832C36.8603 29.069 36.3382 29.8939 35.875 30.752ZM56.3242 21.0469C55.6016 20.1133 54.2031 19 51.6953 19C48.4043 19 44.1836 21.2031 40.4043 24.8906C39.3237 25.9379 38.3314 27.0726 37.4375 28.2832V46.3438C37.4375 46.7582 37.2729 47.1556 36.9799 47.4486C36.6869 47.7416 36.2894 47.9062 35.875 47.9062C35.4606 47.9062 35.0632 47.7416 34.7702 47.4486C34.4771 47.1556 34.3125 46.7582 34.3125 46.3438V28.2832C33.4211 27.0729 32.4314 25.9382 31.3535 24.8906C27.5723 21.2031 23.3516 19 20.0547 19C17.5469 19 16.1485 20.1133 15.4258 21.0469C14.0938 22.7598 13.0469 25.75 15.3848 34.9531C16.5664 39.6074 19.1953 41.3984 21.3672 42.0664C20.1828 43.9896 19.8032 46.3018 20.3104 48.5028C20.8177 50.7038 22.1711 52.6166 24.0778 53.8274C25.9845 55.0382 28.2912 55.4497 30.499 54.9729C32.7068 54.496 34.638 53.1691 35.875 51.2793C37.112 53.1691 39.0433 54.496 41.2511 54.9729C43.4588 55.4497 45.7656 55.0382 47.6723 53.8274C49.579 52.6166 50.9324 50.7038 51.4396 48.5028C51.9469 46.3018 51.5672 43.9896 50.3828 42.0664C52.5547 41.4023 55.1817 39.6074 56.3653 34.9531C57.6778 29.7891 58.6973 24.0977 56.3242 21.0469Z" fill="#D2AB68"/>
</svg>
